<svg width="96" height="96" viewBox="0 0 96 96" fill="none" xmlns="http://www.w3.org/2000/svg">
<path d="M38 8C34.6863 8 32 10.6863 32 14V18C32 21.3137 34.6863 24 38 24H58C61.3137 24 64 21.3137 64 18V14C64 10.6863 61.3137 8 58 8H38Z" fill="#FFC556"/>
<path fill-rule="evenodd" clip-rule="evenodd" d="M26 16.1465C20.9684 16.4288 17.7919 17.2306 15.5147 19.5078C12 23.0225 12 28.6793 12 39.993V63.993C12 75.3068 12 80.9636 15.5147 84.4783C19.0294 87.993 24.6863 87.993 36 87.993H60C71.3137 87.993 76.9706 87.993 80.4853 84.4783C84 80.9636 84 75.3068 84 63.993V39.993C84 28.6793 84 23.0225 80.4853 19.5078C78.2081 17.2306 75.0316 16.4288 70 16.1465V18C70 24.6274 64.6274 30 58 30H38C31.3726 30 26 24.6274 26 18V16.1465ZM28 39C26.3431 39 25 40.3431 25 42C25 43.6569 26.3431 45 28 45H30C31.6569 45 33 43.6569 33 42C33 40.3431 31.6569 39 30 39H28ZM42 39C40.3431 39 39 40.3431 39 42C39 43.6569 40.3431 45 42 45H68C69.6569 45 71 43.6569 71 42C71 40.3431 69.6569 39 68 39H42ZM28 53C26.3431 53 25 54.3431 25 56C25 57.6569 26.3431 59 28 59H30C31.6569 59 33 57.6569 33 56C33 54.3431 31.6569 53 30 53H28ZM42 53C40.3431 53 39 54.3431 39 56C39 57.6569 40.3431 59 42 59H68C69.6569 59 71 57.6569 71 56C71 54.3431 69.6569 53 68 53H42ZM28 67C26.3431 67 25 68.3431 25 70C25 71.6569 26.3431 73 28 73H30C31.6569 73 33 71.6569 33 70C33 68.3431 31.6569 67 30 67H28ZM42 67C40.3431 67 39 68.3431 39 70C39 71.6569 40.3431 73 42 73H68C69.6569 73 71 71.6569 71 70C71 68.3431 69.6569 67 68 67H42Z" fill="#FFC556"/>
</svg>
