<svg width="96" height="96" viewBox="0 0 96 96" fill="none" xmlns="http://www.w3.org/2000/svg">
<path fill-rule="evenodd" clip-rule="evenodd" d="M13.5101 20.3296C12 22.4811 12 28.8763 12 41.6666V47.9654C12 70.5177 28.9558 81.4619 39.5942 86.1091C42.4801 87.3697 43.923 88 48 88C52.077 88 53.5199 87.3697 56.4058 86.1091C67.0441 81.462 84 70.5177 84 47.9654V41.6666C84 28.8763 84 22.4811 82.4899 20.3296C80.9799 18.1782 74.9667 16.1198 62.9404 12.0032L60.6491 11.2189C54.3801 9.07296 51.2456 8 48 8C44.7544 8 41.6199 9.07296 35.3509 11.2189L33.0596 12.0032C21.0333 16.1198 15.0201 18.1782 13.5101 20.3296ZM60.2378 41.998C61.3413 40.7621 61.234 38.8657 59.998 37.7622C58.7621 36.6587 56.8657 36.766 55.7622 38.002L43.7143 51.4956L40.2378 47.602C39.1343 46.366 37.2379 46.2587 36.002 47.3622C34.766 48.4657 34.6587 50.3621 35.7622 51.598L41.4765 57.998C42.0457 58.6355 42.8597 59 43.7143 59C44.5689 59 45.3829 58.6355 45.9521 57.998L60.2378 41.998Z" fill="#FFC556"/>
</svg>
