<svg width="96" height="96" viewBox="0 0 96 96" fill="none" xmlns="http://www.w3.org/2000/svg">
<path fill-rule="evenodd" clip-rule="evenodd" d="M70 66C70 78.1503 60.1503 88 48 88C35.8497 88 26 78.1503 26 66C26 59.0545 29.2186 52.8607 34.2456 48.8287C35.3002 47.9829 36 46.7427 36 45.3908V20C36 13.3726 41.3726 8 48 8C54.6274 8 60 13.3726 60 20V45.3908C60 46.7427 60.6998 47.9829 61.7544 48.8287C66.7814 52.8607 70 59.0545 70 66ZM48 17C49.6569 17 51 18.3431 51 20V53.5215C51 55.2689 52.1891 56.7504 53.6321 57.7357C56.2691 59.5363 58 62.566 58 66C58 71.5229 53.5228 76 48 76C42.4772 76 38 71.5229 38 66C38 62.566 39.7309 59.5363 42.3679 57.7357C43.8109 56.7504 45 55.2689 45 53.5215V20C45 18.3431 46.3431 17 48 17Z" fill="#FFC556"/>
</svg>
