<svg width="96" height="96" viewBox="0 0 96 96" fill="none" xmlns="http://www.w3.org/2000/svg">
<path fill-rule="evenodd" clip-rule="evenodd" d="M74 56C66.268 56 60 61.8334 60 69.0293C60 76.1687 64.4683 84.4999 71.4399 87.4791C73.0651 88.1736 74.935 88.1736 76.5601 87.4791C83.5317 84.4999 88 76.1687 88 69.0293C88 61.8334 81.732 56 74 56ZM74 74C76.2091 74 78 72.2091 78 70C78 67.7909 76.2091 66 74 66C71.7909 66 70 67.7909 70 70C70 72.2091 71.7909 74 74 74Z" fill="#FFC556"/>
<path fill-rule="evenodd" clip-rule="evenodd" d="M22 8C14.268 8 8 13.8334 8 21.0293C8 28.1687 12.4683 36.4999 19.4399 39.4791C21.065 40.1736 22.9349 40.1736 24.5601 39.4791C31.5317 36.4999 36 28.1687 36 21.0293C36 13.8334 29.732 8 22 8ZM22 26C24.2091 26 26 24.2091 26 22C26 19.7909 24.2091 18 22 18C19.7909 18 18 19.7909 18 22C18 24.2091 19.7909 26 22 26Z" fill="#FFC556"/>
<path fill-rule="evenodd" clip-rule="evenodd" d="M44.9999 20C44.9999 18.3431 46.3431 17 47.9999 17H64.5274C75.5324 17 79.7175 31.372 70.4331 37.2803L28.788 63.7817C24.5678 66.4673 26.4702 73 31.4724 73H40.7573L39.8786 72.1213C38.707 70.9497 38.707 69.0503 39.8786 67.8787C41.0502 66.7071 42.9497 66.7071 44.1212 67.8787L50.1212 73.8787C51.2928 75.0503 51.2928 76.9497 50.1212 78.1213L44.1212 84.1213C42.9497 85.2929 41.0502 85.2929 39.8786 84.1213C38.707 82.9497 38.707 81.0503 39.8786 79.8787L40.7573 79H31.4724C20.4674 79 16.2824 64.628 25.5668 58.7197L67.2118 32.2183C71.432 29.5327 69.5297 23 64.5274 23H47.9999C46.3431 23 44.9999 21.6569 44.9999 20Z" fill="#FFC556"/>
</svg>
