<svg width="18" height="18" viewBox="0 0 18 18" fill="none" xmlns="http://www.w3.org/2000/svg">
<path d="M13.1833 3.32364L11.6833 2.53648C10.3666 1.84549 9.7082 1.5 9 1.5C8.2918 1.5 7.63344 1.84549 6.31672 2.53647L6.07543 2.6631L12.7677 6.48726L15.7802 4.98099C15.2956 4.43212 14.5136 4.02175 13.1833 3.32364Z" fill="#FFC556"/>
<path d="M16.3113 5.97326L13.3125 7.47264V9.75C13.3125 10.0607 13.0607 10.3125 12.75 10.3125C12.4393 10.3125 12.1875 10.0607 12.1875 9.75V8.03514L9.5625 9.34764V16.428C10.1009 16.2939 10.7136 15.9724 11.6833 15.4635L13.1833 14.6764C14.797 13.8295 15.6039 13.4061 16.052 12.6452C16.5 11.8843 16.5 10.9375 16.5 9.04387V8.95613C16.5 7.53664 16.5 6.64918 16.3113 5.97326Z" fill="#FFC556"/>
<path d="M8.4375 16.428V9.34764L1.68873 5.97326C1.5 6.64918 1.5 7.53664 1.5 8.95613V9.04387C1.5 10.9375 1.5 11.8843 1.94805 12.6452C2.39609 13.4061 3.20297 13.8295 4.81671 14.6764L6.31672 15.4635C7.28643 15.9724 7.89906 16.2939 8.4375 16.428Z" fill="#FFC556"/>
<path d="M2.21977 4.98099L9 8.37111L11.5584 7.09192L4.89342 3.28339L4.81672 3.32364C3.48641 4.02175 2.70443 4.43212 2.21977 4.98099Z" fill="#FFC556"/>
</svg>
