<svg width="18" height="17" viewBox="0 0 18 17" fill="none" xmlns="http://www.w3.org/2000/svg">
<path fill-rule="evenodd" clip-rule="evenodd" d="M2.77715 1.7025C3.7916 0.693819 5.46191 0.873365 6.31134 2.00802L7.36216 3.41169C8.05332 4.33492 7.99233 5.62526 7.17191 6.44103L6.97293 6.63887C6.96424 6.66412 6.94317 6.74346 6.96656 6.89425C7.01924 7.23383 7.30281 7.95417 8.49324 9.13785C9.68325 10.3211 10.4087 10.6044 10.7531 10.6572C10.9092 10.6811 10.9908 10.6588 11.0161 10.65L11.3561 10.312C12.0854 9.58675 13.2061 9.45119 14.1091 9.94208L15.7012 10.8076C17.0645 11.5487 17.409 13.4018 16.292 14.5123L15.1082 15.6894C14.7353 16.0603 14.2337 16.3695 13.6215 16.4266C12.114 16.5671 8.59883 16.3878 4.90541 12.7153C1.45715 9.28666 0.795432 6.29667 0.711708 4.82348L1.3357 4.78802L0.711708 4.82348C0.669373 4.07855 1.02139 3.4483 1.46915 3.00308L2.77715 1.7025ZM5.31068 2.75714C4.88849 2.19318 4.10159 2.14834 3.65852 2.5889L2.35052 3.88947C2.07558 4.16285 1.9433 4.46412 1.95969 4.75255C2.02622 5.92305 2.56063 8.62112 5.78678 11.8289C9.17132 15.1943 12.2973 15.2946 13.5055 15.182C13.7524 15.159 13.9979 15.0307 14.2269 14.803L15.4107 13.626C15.8919 13.1475 15.7857 12.2763 15.1042 11.9058L13.5121 11.0403C13.0725 10.8013 12.5575 10.8802 12.2374 11.1983L11.8579 11.5757L11.4172 11.1325C11.8579 11.5757 11.8573 11.5763 11.8567 11.5769L11.8555 11.5781L11.853 11.5806L11.8475 11.5858L11.8353 11.5972C11.8266 11.6052 11.8165 11.6139 11.8052 11.6233C11.7826 11.642 11.7548 11.6633 11.7215 11.6856C11.6548 11.7303 11.5667 11.7789 11.456 11.8201C11.2302 11.9042 10.9326 11.9494 10.5636 11.8928C9.84125 11.782 8.88438 11.2895 7.61188 10.0242C6.33981 8.75939 5.8432 7.80695 5.73134 7.08588C5.67414 6.71717 5.71976 6.41942 5.80487 6.19354C5.84658 6.08284 5.89573 5.99482 5.94084 5.92824C5.96333 5.89504 5.98475 5.86728 6.00364 5.84474C6.01309 5.83346 6.02191 5.82348 6.02995 5.81475L6.04139 5.8026L6.04663 5.79721L6.04913 5.79469L6.05034 5.79348C6.05094 5.79288 6.05153 5.79229 6.49221 6.23549L6.05153 5.79229L6.29055 5.55463C6.64771 5.19949 6.69774 4.60995 6.3615 4.16081L5.31068 2.75714Z" fill="#242424" stroke="#242424" stroke-width="0.2" stroke-linecap="round"/>
</svg>
