<svg width="25" height="24" viewBox="0 0 25 24" fill="none" xmlns="http://www.w3.org/2000/svg">
<path fill-rule="evenodd" clip-rule="evenodd" d="M6.23268 2.043C7.45002 0.832583 9.45439 1.04804 10.4737 2.40962L11.7347 4.09402C12.5641 5.20191 12.4909 6.75032 11.5064 7.72923L11.2676 7.96665C11.2572 7.99694 11.2319 8.09215 11.26 8.2731C11.3232 8.6806 11.6635 9.545 13.092 10.9654C14.52 12.3853 15.3905 12.7253 15.8038 12.7887C15.9911 12.8174 16.0891 12.7906 16.1194 12.78L16.5274 12.3743C17.4026 11.5041 18.7475 11.3414 19.8311 11.9305L21.7416 12.9691C23.3775 13.8584 23.7909 16.0821 22.4505 17.4148L21.03 18.8273C20.5824 19.2723 19.9805 19.6434 19.2459 19.7119C17.4369 19.8806 13.2187 19.6654 8.78659 15.2584C4.64868 11.144 3.85462 7.556 3.75415 5.78817L4.50294 5.74562L3.75415 5.78817C3.70335 4.89426 4.12576 4.13796 4.66308 3.60369L6.23268 2.043ZM9.27291 3.30856C8.76628 2.63182 7.822 2.57801 7.29032 3.10668L5.72072 4.66737C5.3908 4.99542 5.23206 5.35695 5.25173 5.70307C5.33156 7.10766 5.97286 10.3453 9.84423 14.1947C13.9057 18.2331 17.6569 18.3536 19.1067 18.2184C19.4029 18.1908 19.6975 18.0369 19.9724 17.7636L21.3929 16.3511C21.9704 15.777 21.843 14.7315 21.0252 14.2869L19.1147 13.2484C18.5871 12.9616 17.969 13.0562 17.585 13.438L17.1296 13.8909L16.6008 13.359C17.1296 13.8909 17.1289 13.8916 17.1282 13.8923L17.1267 13.8937L17.1236 13.8967L17.1171 13.903L17.1025 13.9166C17.092 13.9262 17.0799 13.9367 17.0664 13.948C17.0392 13.9705 17.0058 13.9959 16.9659 14.0227C16.8858 14.0763 16.7801 14.1347 16.6472 14.1841C16.3764 14.285 16.0192 14.3392 15.5764 14.2713C14.7096 14.1384 13.5614 13.5474 12.0344 12.0291C10.5079 10.5113 9.91194 9.36834 9.7777 8.50306C9.70906 8.06061 9.76381 7.70331 9.86594 7.43225C9.91599 7.29941 9.97497 7.19378 10.0291 7.11389C10.0561 7.07405 10.0818 7.04074 10.1045 7.01368C10.1158 7.00015 10.1264 6.98817 10.136 6.9777L10.1498 6.96312L10.1561 6.95666L10.159 6.95363L10.1605 6.95217C10.1612 6.95146 10.1619 6.95075 10.6908 7.48258L10.1619 6.95075L10.4488 6.66556C10.8774 6.23939 10.9374 5.53194 10.5339 4.99297L9.27291 3.30856Z" fill="#FFC556" stroke="#FFC556" stroke-width="0.2" stroke-linecap="round"/>
</svg>
